<svg width="1069" height="635" viewBox="0 0 1069 635" fill="none" xmlns="http://www.w3.org/2000/svg">
<path opacity="0.1" fill-rule="evenodd" clip-rule="evenodd" d="M1069 88.1439L1040.5 104.544V159.744L777.3 311.644L793.5 321.044L929.1 242.644H929.3H1027.9L1069 218.944V220.244L1028.4 243.644L1028.3 243.744H929.6L794.6 321.644L808.9 329.844L937.2 255.744L937.3 255.644H1050.6L1069 245.044V246.344L1051 256.744L1050.9 256.844H937.6L918.7 267.744H1069V268.944H916.7L868.8 296.544L887.6 307.444H921L952.3 325.444C954.2 324.644 957 324.744 958.7 325.744C960.7 326.844 960.7 328.644 958.7 329.844C956.8 330.944 953.6 330.944 951.7 329.844C949.9 328.844 949.7 327.244 951.1 326.044L920.7 308.544H889.6L962.3 350.544H1029.6L1067.1 328.844C1065.7 327.744 1065.8 326.144 1067.6 325.144C1068 324.877 1068.47 324.677 1069 324.544V329.744C1068.7 329.644 1068.5 329.644 1068.2 329.544L1030 351.544L1029.9 351.644H962L867.7 297.144L827.6 320.344H849.8L867.6 330.644C869.5 329.744 872.3 329.844 874.1 330.844C876.1 331.944 876.1 333.844 874.1 334.944C872.2 336.044 869 336.044 867 334.944C865.3 333.944 865.1 332.344 866.5 331.244L849.5 321.444H825.7L810 330.544L842.7 349.444L843.5 349.944L833 355.944L890.9 389.444H910.2L933.3 376.044C931.9 374.944 932 373.344 933.8 372.344C935.8 371.244 938.9 371.244 940.9 372.344C942.8 373.444 942.8 375.344 940.9 376.444C939.1 377.444 936.4 377.544 934.4 376.744L910.7 390.444L910.5 390.544H890.6L848.6 366.244V388.444L888 411.244C890 410.444 892.7 410.544 894.5 411.544C896.4 412.644 896.4 414.444 894.5 415.644C892.5 416.744 889.3 416.744 887.4 415.644C885.6 414.644 885.5 413.044 886.9 411.844L847.4 389.144V365.544L831.9 356.644L777.3 388.144L802.6 402.744H835.5L887.4 432.744H926.8L981.6 401.144C980.2 399.944 980.4 398.444 982.1 397.344C984.1 396.244 987.2 396.244 989.2 397.344C991.2 398.544 991.2 400.344 989.2 401.444C987.4 402.544 984.7 402.544 982.7 401.744L927.3 433.844H927.1H887.1L835.2 403.844H804.6L956.7 491.744H1064.3L1069 494.444V495.744L1064 492.844H956.4L776.2 388.844L755.7 400.644L937.7 505.644L938 505.844V568.644L1000.3 604.644C1002.2 603.744 1005 603.844 1006.7 604.844C1008.7 606.044 1008.7 607.844 1006.7 608.944C1004.8 610.144 1001.6 610.144 999.7 608.944C997.9 607.944 997.7 606.344 999.2 605.244L936.9 569.344V506.544L754.6 401.244L733.1 413.644L839.9 475.344L840.2 475.444V529.344L657.3 634.944H649.1C649.1 634.944 649.133 634.944 649.2 634.944C650.9 633.844 653.7 633.744 655.6 634.644L790.5 556.744H749.9L677.2 598.744C678.6 599.844 678.5 601.444 676.7 602.444C674.8 603.544 671.6 603.544 669.6 602.444C667.7 601.344 667.7 599.544 669.6 598.344C671.4 597.344 674.1 597.244 676.1 598.044L749.5 555.744L749.6 555.644H792.4L839 528.744V476.144L753.1 426.444V453.244L806.2 483.844V510.944C807.3 511.044 808.3 511.244 809.2 511.744C811.1 512.844 811.1 514.744 809.2 515.844C807.2 516.944 804 516.944 802.1 515.844C800.1 514.744 800.1 512.844 802.1 511.744C802.9 511.244 804 511.044 805.1 510.944V484.544L752 453.844V425.844L732 414.344L710.2 426.844L709.9 427.044L696.5 419.344V477.644L743.1 504.544C745.1 503.744 747.8 503.844 749.6 504.844C751.5 506.044 751.5 507.844 749.6 508.944C747.6 510.044 744.5 510.044 742.5 508.944C740.7 507.944 740.6 506.344 742 505.244L695.4 478.344V454.544L660.6 474.644V497.244L736.6 541.044C738.5 540.244 741.3 540.344 743 541.344C745 542.444 745 544.344 743 545.444C741.1 546.544 737.9 546.544 735.9 545.444C734.2 544.444 734 542.844 735.4 541.744L659.8 498.044L659.5 497.844V473.944L695.4 453.244V418.644L676.4 407.644L660.2 416.944V438.144L635.8 452.244C637.2 453.344 637.1 454.944 635.3 455.944C633.4 457.044 630.2 457.044 628.2 455.944C626.3 454.844 626.3 452.944 628.2 451.844C630 450.844 632.7 450.744 634.7 451.544L659.1 437.444V417.644L605.8 448.344V494.744L686 541.044L686.3 541.144V558.644L641 584.844C642.4 585.944 642.2 587.544 640.5 588.544C638.5 589.644 635.3 589.644 633.4 588.544C631.4 587.444 631.4 585.544 633.4 584.444C635.1 583.444 637.9 583.344 639.8 584.144L685.2 557.944V541.844L605 495.544L604.7 495.344V447.744L675.2 407.044L661 398.744L569.5 451.544V538.444L542.8 553.844V633.744L540.8 634.944H538.5L541.7 633.144V554.544L402.4 634.944H400.2L568.4 537.844V450.944L659.9 398.144L643.7 388.844L554.7 440.244L554.9 440.644L470.2 489.644V500.244L453 510.244V540.844L326.6 613.844C328 614.944 327.8 616.544 326.1 617.544C324.1 618.644 320.9 618.644 319 617.544C317 616.444 317 614.644 319 613.444C320.7 612.444 323.5 612.344 325.4 613.144L451.9 540.144V510.844L430 523.544C431.4 524.644 431.3 526.244 429.5 527.244C427.6 528.344 424.4 528.344 422.4 527.244C420.5 526.144 420.5 524.244 422.4 523.144C424.2 522.144 426.9 522.044 428.9 522.844L469.1 499.644V488.944L553.1 440.444H514.1L346.1 537.444V562.844L279.5 601.244C280.9 602.344 280.8 603.944 279 604.944C277 606.144 273.9 606.144 271.9 604.944C270 603.844 270 602.044 271.9 600.944C273.7 599.844 276.4 599.744 278.4 600.644L345 562.144V536.844L511.9 440.444H398.2L261.5 519.344L261.4 519.444H101.6L7.89999 465.344C5.99999 466.144 3.2 466.044 1.5 465.044C-0.5 463.944 -0.5 462.044 1.5 460.944C3.4 459.844 6.6 459.844 8.5 460.944C10.3 461.944 10.5 463.544 9 464.644L101.9 518.244H261.1L397.8 439.344H397.9H553.9L642.6 388.144L625.8 378.444L561.6 415.544L561.4 415.644H380.6L253.9 488.844C255.3 489.944 255.1 491.544 253.4 492.544C251.4 493.644 248.2 493.644 246.3 492.544C244.3 491.444 244.3 489.644 246.3 488.444C248 487.444 250.8 487.344 252.7 488.144L380.2 414.544H380.3H514.1L479 394.244H384.4C384.2 394.844 383.8 395.344 383 395.744C381.1 396.944 377.9 396.944 376 395.744C374 394.644 374 392.844 376 391.644C377.9 390.544 381.1 390.544 383 391.644C383.8 392.144 384.2 392.644 384.4 393.144H479.3L516.3 414.544H561.1L624.7 377.844L609.9 369.344L553.7 401.744L553.6 401.844H530.9L484.9 375.344H346.3L259.5 325.244C257.6 325.944 254.9 325.844 253.1 324.844C251.2 323.744 251.2 321.944 253.1 320.744C255.1 319.644 258.3 319.644 260.2 320.744C262 321.844 262.1 323.444 260.7 324.544L346.6 374.144H485.2L531.2 400.744H553.3L594.1 377.144H573.7L553.9 388.544L553.8 388.644H538.3L503.9 368.744C501.9 369.544 499.2 369.444 497.5 368.444C495.6 367.344 495.6 365.444 497.5 364.344C499.5 363.244 502.6 363.244 504.6 364.344C506.4 365.344 506.5 367.044 505 368.144L538.6 387.544H553.4L573.2 376.144L573.4 376.044H596L608.8 368.644L588 356.644H557.4L519.5 334.744C517.5 335.544 514.8 335.444 513 334.444C511 333.344 511 331.544 513 330.344C515 329.244 518.1 329.244 520.1 330.344C521.8 331.444 522 332.944 520.6 334.144L557.7 355.544H586.1L577.2 350.344L576.3 349.944L591.5 341.144L550.4 317.444H507.2L461.7 343.744C463.1 344.844 462.9 346.444 461.2 347.444C459.2 348.544 456 348.544 454.1 347.444C452.1 346.344 452.1 344.544 454.1 343.344C455.9 342.344 458.6 342.244 460.6 343.044L484 329.544H398.8L374.3 315.344H325.5C325.3 315.944 324.9 316.444 324.1 316.844C322.2 318.044 319 318.044 317.1 316.844C315.1 315.744 315.1 313.944 317.1 312.744C319 311.644 322.2 311.644 324.1 312.744C324.9 313.244 325.3 313.744 325.5 314.244H374.6L399.1 328.444H486L506.8 316.344H506.9H548.5L531.5 306.444H433.7L408.5 291.944H333.7L297.9 271.244C296 272.044 293.2 271.944 291.5 270.944C289.5 269.844 289.5 268.044 291.5 266.844C293.4 265.744 296.6 265.744 298.6 266.844C300.3 267.944 300.5 269.444 299.1 270.644L334 290.744H406.6L322.6 242.244H260.9L234.9 227.344C233 228.144 230.2 228.044 228.5 227.044C226.5 225.844 226.5 224.044 228.5 222.944C230.4 221.844 233.6 221.844 235.5 222.944C237.3 223.944 237.5 225.544 236 226.644L261.2 241.144H322.9L434 305.344H531.8L592.6 340.444L621 324.144L550.2 283.244H474L387.5 233.344C385.6 234.144 382.8 234.044 381.1 233.044C379.1 231.944 379.1 230.044 381.1 228.944C383 227.844 386.2 227.844 388.1 228.944C389.9 229.944 390.1 231.544 388.6 232.644L474.3 282.144H548.2L455 228.244L454.7 228.144V184.844L315.2 104.344C313.3 105.144 310.5 105.044 308.8 104.044C306.8 102.944 306.8 101.044 308.8 99.9439C310.7 98.8439 313.9 98.8439 315.8 99.9439C317.6 100.944 317.8 102.544 316.3 103.744L455.5 184.044L455.8 184.244V227.444L622.1 323.444L646.5 309.344L546.9 251.844L546.6 251.644V164.744L457.8 113.544C455.9 114.344 453.1 114.244 451.4 113.244C449.4 112.144 449.4 110.344 451.4 109.144C453.3 108.044 456.5 108.044 458.4 109.144C460.2 110.244 460.4 111.744 458.9 112.944L547.4 163.944L547.7 164.144V251.044L647.6 308.744L662.7 300.044L588.6 257.244V155.444L553 134.944V96.644L521.6 78.4439C519.7 79.2439 516.9 79.1439 515.2 78.1439C513.2 77.0439 513.2 75.2439 515.2 74.0439C517.1 72.9439 520.3 72.9439 522.2 74.0439C524 75.0439 524.2 76.6439 522.7 77.8439L554.2 95.9439V134.244L589.8 154.844V256.644L663.8 299.344L684.1 287.644L627.5 254.944V84.8439H628.6V184.444L657 168.044V112.244C655.9 112.144 654.9 111.844 654 111.344C652.1 110.244 652.1 108.444 654 107.344C656 106.144 659.2 106.144 661.1 107.344C663.1 108.444 663.1 110.244 661.1 111.344C660.3 111.844 659.2 112.144 658.1 112.244V168.744L628.6 185.744V215.844L666 194.244C664.7 193.144 664.9 191.544 666.6 190.544C668.6 189.444 671.7 189.444 673.7 190.544C675.6 191.744 675.6 193.544 673.7 194.644C671.9 195.744 669 195.744 667.1 194.844L628.6 217.144V254.244L685.3 287.044L703.4 276.544L675.8 260.644V237.244L682.8 233.244V221.244L732.4 192.644V172.444L772.8 149.044C771.4 147.944 771.6 146.344 773.3 145.344C775.3 144.244 778.4 144.244 780.4 145.344C782.3 146.444 782.3 148.344 780.4 149.444C778.6 150.444 775.9 150.544 773.9 149.744L733.5 173.044V193.244L683.9 221.944V232.544L767.3 184.444C766 183.344 766.2 181.744 767.9 180.744C769.9 179.644 773.1 179.644 775 180.744C777 181.944 777 183.744 775 184.844C773.2 185.944 770.4 185.944 768.4 185.044L701.5 223.744H735.1L773.6 201.444C772.2 200.344 772.3 198.744 774.1 197.744C776 196.644 779.2 196.644 781.2 197.744C783.1 198.844 783.1 200.744 781.1 201.844C779.4 202.844 776.6 202.944 774.7 202.144L735.4 224.844H699.7V224.744L676.9 237.844V260.044L704.5 275.944L709.7 272.944L709.9 272.744L717 276.844L832.6 210.144L832.8 210.044H864.3C864.5 209.444 865 208.944 865.7 208.544C867.6 207.444 870.8 207.444 872.8 208.544C874.7 209.644 874.7 211.544 872.8 212.644C870.8 213.744 867.6 213.744 865.7 212.644C865 212.244 864.5 211.744 864.3 211.144H833.1L718.2 277.544L735.7 287.644L831.8 232.144C830.4 231.044 830.5 229.444 832.3 228.444C834.3 227.344 837.4 227.344 839.4 228.444C841.3 229.544 841.3 231.444 839.4 232.544C837.6 233.544 834.9 233.644 832.9 232.844L736.9 288.344L755.1 298.844L890.8 220.444V154.844L826.8 117.844H767.9L721.2 90.9439C719.2 91.7439 716.5 91.6439 714.7 90.6439C712.8 89.4439 712.8 87.6439 714.7 86.5439C716.7 85.3439 719.8 85.3439 721.8 86.5439C723.6 87.5439 723.7 89.1439 722.3 90.2439L768.2 116.744H824.9L747 71.8439L746.8 71.6439V13.1439C745.7 13.1439 744.6 12.8439 743.8 12.3439C741.8 11.2439 741.8 9.44395 743.8 8.24395C745.7 7.14395 748.9 7.14395 750.9 8.24395C752.8 9.44395 752.8 11.2439 750.9 12.3439C750 12.8439 749 13.1439 747.9 13.1439V70.9439L877.3 145.644L956.9 99.7439V48.0439L1013.4 15.4439C1012 14.3439 1012.1 12.7439 1013.9 11.6439C1015.9 10.5439 1019 10.5439 1021 11.6439C1022.9 12.8439 1022.9 14.6439 1021 15.7439C1019.2 16.8439 1016.5 16.8439 1014.5 16.0439L958 48.7439V100.344L878.4 146.344L891.7 154.044L891.9 154.144V205.744L914.9 192.544V160.244L961.6 133.344C960.2 132.244 960.3 130.644 962.1 129.644C964 128.444 967.2 128.444 969.2 129.644C971.1 130.744 971.1 132.544 969.2 133.744C967.4 134.744 964.6 134.844 962.7 133.944L916 160.944V193.144L891.9 207.044V221.044L756.2 299.444L776.2 311.044L1039.4 159.044V103.944L1069 86.8439V88.1439ZM709.9 274.044L578.6 349.944L709.9 425.744L841.3 349.944L709.9 274.044Z" fill="#42E8E0"/>
<g opacity="0.7">
<path d="M676.3 568.744L338.7 373.844L676.3 178.944L1013.9 373.844L676.3 568.744Z" fill="#0F054C"/>
</g>
<g opacity="0.7">
<path d="M676.3 538.544L391.1 373.844L676.3 209.244L961.5 373.844L676.3 538.544Z" fill="#0F054C"/>
</g>
<g opacity="0.9">
<path d="M676.3 503.444L451.9 373.844L676.3 244.344L900.7 373.844L676.3 503.444Z" fill="#080344"/>
</g>
<path fill-rule="evenodd" clip-rule="evenodd" d="M722.5 507.644C720.4 507.644 718.2 507.144 716.4 506.044L448.5 351.444C446.7 350.344 445.6 348.844 445.6 347.344C445.6 346.044 446.4 344.844 447.8 344.044L607.7 251.744C610.5 250.144 615.3 250.244 618.5 252.144L886.4 406.844C888.3 407.844 889.3 409.344 889.3 410.844C889.3 412.244 888.5 413.344 887.1 414.244L727.3 506.544C726 507.244 724.3 507.644 722.5 507.644ZM449.5 349.744L717.4 504.444C720 505.944 724.1 506.144 726.3 504.844L886.2 412.544C886.7 412.244 887.4 411.644 887.4 410.844C887.4 410.044 886.7 409.144 885.5 408.444L617.6 253.844C615 252.344 610.9 252.144 608.6 253.444L448.8 345.744C448.2 346.044 447.5 346.544 447.5 347.344C447.5 348.144 448.3 349.044 449.5 349.744Z" fill="#42E8E0"/>
<path d="M618.4 204.744L652.3 3.84405L649.6 2.74406L653.7 0.344048C654.5 -0.155952 655.6 -0.155949 656.8 0.644051L927.5 156.844C929.7 158.144 931.4 161.444 931 163.744L896.8 366.244C896.7 367.344 896.1 368.044 895.4 368.344L891.4 370.644L890.7 366.844L891 366.944L621.9 211.644C619.7 210.344 618 207.044 618.4 204.744Z" fill="url(#paint0_linear_215_7178)"/>
<path d="M925.9 162.344L930.4 160.344C930.9 161.544 931.1 162.744 931 163.744L896.8 366.244C896.7 367.344 896.1 368.044 895.4 368.344L891.4 370.644L890.7 366.844L891 366.944L877.3 359.044L925.9 162.344Z" fill="url(#paint1_linear_215_7178)"/>
<path d="M614.2 207.244L648.3 4.74409C648.7 2.54409 650.5 1.84409 652.6 3.04409L923.2 159.344C925.4 160.544 927.1 163.844 926.7 166.144L892.6 368.644C892.2 370.844 890.4 371.544 888.3 370.344L617.7 214.044C615.5 212.844 613.8 209.544 614.2 207.244Z" fill="#24126A"/>
<g opacity="0.5">
<path d="M651.7 6.84375L923.6 163.744L889.2 366.744L617.5 209.944L651.7 6.84375Z" fill="#453C9E"/>
</g>
<path d="M447.6 309.944L462.3 317.644L610.4 232.144C612.9 230.744 617.3 230.944 620.1 232.544L875.5 380.044C878 378.644 889.1 373.344 889.1 373.344L883.7 382.144C883.7 382.078 883.7 382.044 883.7 382.044C883.5 382.744 883 383.244 882.2 383.744L726.2 473.844C723.7 475.244 719.4 475.044 716.6 473.444L455.2 322.544C454 321.844 453.3 321.044 453 320.144H452.9L447.6 309.944Z" fill="url(#paint2_linear_215_7178)"/>
<path d="M449.1 306.644L609 214.344C611.5 212.944 616 213.044 618.9 214.744L886.8 369.444C889.7 371.144 890.1 373.744 887.5 375.144L727.7 467.444C725.1 468.944 720.7 468.744 717.7 467.044L449.9 312.344C446.9 310.644 446.6 308.144 449.1 306.644Z" fill="url(#paint3_linear_215_7178)"/>
<path d="M449.9 311.144L717.7 465.844C720.7 467.544 725.1 467.744 727.7 466.244L887.5 373.944C888.4 373.444 888.9 372.744 889.1 372.044C889.4 373.244 888.9 374.344 887.5 375.144L727.7 467.444C725.1 468.944 720.7 468.744 717.7 467.044L449.9 312.344C448 311.244 447.2 309.844 447.5 308.544C447.8 309.444 448.5 310.444 449.9 311.144Z" fill="white"/>
<mask id="mask0_215_7178" style="mask-type:luminance" maskUnits="userSpaceOnUse" x="617" y="6" width="307" height="361">
<path d="M889.23 366.754L617.49 209.934L651.66 6.81396L923.57 163.724L889.23 366.754Z" fill="white"/>
</mask>
<g mask="url(#mask0_215_7178)">
<g opacity="0.1">
<path d="M617.4 212.744L632.1 220.444L780.2 134.944C782.7 133.544 787 133.744 789.9 135.344L1045.3 282.844C1047.8 281.444 1058.9 276.144 1058.9 276.144L1053.5 284.944C1053.3 285.544 1052.8 286.144 1052 286.544L896 376.644C893.5 378.044 889.2 377.844 886.3 376.244L625 225.344C623.8 224.644 623.1 223.844 622.8 222.944L622.7 223.044L617.4 212.744Z" fill="url(#paint4_linear_215_7178)"/>
<path d="M618.9 209.444L778.8 117.144C781.3 115.744 785.8 115.944 788.7 117.644L1056.6 272.244C1059.5 273.944 1059.9 276.544 1057.3 277.944L897.5 370.244C894.9 371.744 890.5 371.544 887.5 369.844L619.7 215.244C616.7 213.544 616.4 210.944 618.9 209.444Z" fill="url(#paint5_linear_215_7178)"/>
<path d="M1057.3 277.944L897.501 370.244C896.101 371.044 894.101 371.344 892.201 371.244C893.401 371.144 894.601 370.844 895.501 370.244L1055.3 277.944C1057.9 276.544 1057.6 273.944 1054.6 272.244L786.701 117.644C785.401 116.844 783.701 116.344 782.101 116.244C784.301 116.044 786.801 116.544 788.701 117.644L1056.6 272.244C1059.5 273.944 1059.9 276.544 1057.3 277.944Z" fill="white"/>
<g opacity="0.5">
<path d="M759.9 190.044L750.3 195.644C749.6 196.144 748.4 196.144 747.7 195.744L739.1 190.744C738.4 190.344 738.5 189.744 739.2 189.244L748.8 183.644C749.5 183.244 750.7 183.244 751.4 183.644L760 188.544C760.7 188.944 760.6 189.644 759.9 190.044Z" fill="#24126A"/>
<path d="M773.1 197.744L763.6 203.344C762.8 203.744 761.7 203.744 761 203.444L752.4 198.444C751.7 198.044 751.8 197.344 752.5 196.944L762 191.344C762.8 190.944 764 190.844 764.6 191.244L773.2 196.244C773.9 196.644 773.9 197.344 773.1 197.744Z" fill="#24126A"/>
<path d="M786.4 205.444L776.8 210.944C776.1 211.444 774.9 211.444 774.2 211.044L765.7 206.044C765 205.744 765 205.044 765.8 204.544L775.3 199.044C776.1 198.544 777.2 198.544 777.9 198.944L786.5 203.844C787.2 204.244 787.1 204.944 786.4 205.444Z" fill="#24126A"/>
<path d="M776.3 215.544L768.3 220.244C767.5 220.744 766.4 220.744 765.7 220.344L757.1 215.344C756.4 214.944 756.4 214.344 757.2 213.844L765.2 209.144C766 208.744 767.1 208.744 767.8 209.144L776.4 214.044C777.1 214.444 777 215.144 776.3 215.544Z" fill="#24126A"/>
<path d="M789.6 223.244L781.5 227.944C780.8 228.344 779.6 228.444 778.9 228.044L770.3 223.044C769.7 222.644 769.7 221.944 770.5 221.544L778.5 216.844C779.2 216.444 780.4 216.344 781.1 216.744L789.7 221.744C790.4 222.144 790.3 222.844 789.6 223.244Z" fill="#24126A"/>
<path d="M802.8 230.944L794.8 235.544C794.1 236.044 792.9 236.044 792.2 235.644L783.6 230.744C782.9 230.344 783 229.644 783.7 229.144L791.7 224.544C792.5 224.044 793.6 224.044 794.3 224.444L802.9 229.344C803.6 229.744 803.6 230.444 802.8 230.944Z" fill="#24126A"/>
<path d="M816.1 238.544L808.1 243.244C807.3 243.644 806.1 243.744 805.5 243.344L796.9 238.344C796.2 237.944 796.2 237.244 797 236.844L805 232.144C805.7 231.744 806.9 231.644 807.6 232.044L816.2 237.044C816.9 237.444 816.8 238.144 816.1 238.544Z" fill="#24126A"/>
<path d="M829.3 246.244L821.3 250.944C820.6 251.344 819.4 251.344 818.7 250.944L810.1 246.044C809.4 245.644 809.5 244.944 810.2 244.544L818.3 239.844C819 239.344 820.2 239.344 820.9 239.744L829.4 244.744C830.1 245.144 830.1 245.744 829.3 246.244Z" fill="#24126A"/>
<path d="M842.6 253.844L834.6 258.544C833.8 258.944 832.7 259.044 832 258.644L823.4 253.644C822.7 253.244 822.8 252.544 823.5 252.144L831.5 247.444C832.3 247.044 833.4 247.044 834.1 247.444L842.7 252.344C843.4 252.744 843.3 253.444 842.6 253.844Z" fill="#24126A"/>
<path d="M855.9 261.544L847.8 266.244C847.1 266.644 845.9 266.644 845.2 266.244L836.7 261.344C836 260.944 836 260.244 836.8 259.844L844.8 255.144C845.5 254.644 846.7 254.644 847.4 255.044L856 260.044C856.7 260.444 856.6 261.044 855.9 261.544Z" fill="#24126A"/>
<path d="M869.1 269.144L861.1 273.844C860.4 274.344 859.2 274.344 858.5 273.944L849.9 268.944C849.2 268.544 849.3 267.944 850 267.444L858 262.744C858.8 262.344 860 262.344 860.6 262.744L869.2 267.644C869.9 268.044 869.9 268.744 869.1 269.144Z" fill="#24126A"/>
<path d="M882.4 276.844L874.4 281.544C873.6 281.944 872.5 282.044 871.8 281.644L863.2 276.644C862.5 276.244 862.5 275.544 863.3 275.144L871.3 270.444C872 270.044 873.2 269.944 873.9 270.344L882.5 275.344C883.2 275.744 883.1 276.444 882.4 276.844Z" fill="#24126A"/>
<path d="M895.6 284.544L887.6 289.144C886.9 289.644 885.7 289.644 885 289.244L876.4 284.344C875.7 283.944 875.8 283.244 876.5 282.744L884.6 278.144C885.3 277.644 886.5 277.644 887.2 278.044L895.8 282.944C896.4 283.344 896.4 284.044 895.6 284.544Z" fill="#24126A"/>
<path d="M770.8 226.544L762.8 231.244C762 231.644 760.8 231.644 760.2 231.244L751.6 226.344C750.9 225.944 750.9 225.244 751.7 224.844L759.7 220.144C760.4 219.644 761.6 219.644 762.3 220.044L770.9 225.044C771.6 225.444 771.5 226.044 770.8 226.544Z" fill="#24126A"/>
<path d="M757.3 218.744L749.3 223.444C748.5 223.844 747.4 223.944 746.7 223.544L738.1 218.544C737.4 218.144 737.5 217.444 738.2 217.044L746.2 212.344C747 211.944 748.1 211.844 748.8 212.244L757.4 217.244C758.1 217.644 758.1 218.344 757.3 218.744Z" fill="#24126A"/>
<path d="M743.8 210.944L735.8 215.644C735.1 216.044 733.9 216.144 733.2 215.744L714.7 205.044C714 204.644 714.1 203.944 714.8 203.544L722.8 198.844C723.6 198.444 724.8 198.344 725.4 198.744L743.9 209.444C744.6 209.844 744.6 210.544 743.8 210.944Z" fill="#24126A"/>
<path d="M728.2 216.044L720.2 220.743C719.4 221.143 718.3 221.244 717.6 220.844L702.6 212.144C701.9 211.744 701.9 211.044 702.7 210.644L710.7 205.944C711.4 205.544 712.6 205.444 713.3 205.844L728.3 214.544C729 214.944 728.9 215.644 728.2 216.044Z" fill="#24126A"/>
<path d="M784 234.144L776 238.844C775.3 239.344 774.1 239.344 773.4 238.944L764.8 233.944C764.1 233.544 764.2 232.944 764.9 232.444L772.9 227.744C773.7 227.344 774.9 227.344 775.6 227.744L784.1 232.644C784.8 233.044 784.8 233.744 784 234.144Z" fill="#24126A"/>
<path d="M797.3 241.844L789.3 246.544C788.5 246.944 787.4 246.944 786.7 246.544L778.1 241.644C777.4 241.244 777.4 240.544 778.2 240.144L786.2 235.444C787 235.044 788.1 234.944 788.8 235.344L797.4 240.344C798.1 240.744 798 241.444 797.3 241.844Z" fill="#24126A"/>
<path d="M810.6 249.444L802.5 254.144C801.8 254.644 800.6 254.644 799.9 254.244L791.3 249.244C790.7 248.844 790.7 248.244 791.5 247.744L799.5 243.044C800.2 242.644 801.4 242.644 802.1 243.044L810.7 247.944C811.4 248.344 811.3 249.044 810.6 249.444Z" fill="#24126A"/>
<path d="M823.8 257.144L815.8 261.844C815.1 262.244 813.9 262.344 813.2 261.944L804.6 256.944C803.9 256.544 804 255.844 804.7 255.444L812.7 250.744C813.5 250.344 814.6 250.244 815.3 250.644L823.9 255.644C824.6 256.044 824.6 256.744 823.8 257.144Z" fill="#24126A"/>
<path d="M837.1 264.844L829.1 269.444C828.3 269.944 827.1 269.944 826.5 269.544L817.9 264.644C817.2 264.244 817.2 263.544 818 263.044L826 258.444C826.7 257.944 827.9 257.944 828.6 258.344L837.2 263.244C837.9 263.644 837.8 264.344 837.1 264.844Z" fill="#24126A"/>
<path d="M850.3 272.444L842.3 277.144C841.6 277.544 840.4 277.644 839.7 277.244L831.1 272.244C830.4 271.844 830.5 271.144 831.2 270.744L839.3 266.044C840 265.644 841.2 265.544 841.9 265.944L850.4 270.944C851.1 271.344 851.1 272.044 850.3 272.444Z" fill="#24126A"/>
<path d="M863.6 280.144L855.6 284.844C854.8 285.244 853.7 285.244 853 284.844L844.4 279.944C843.7 279.544 843.8 278.844 844.5 278.444L852.5 273.744C853.3 273.244 854.4 273.244 855.1 273.644L863.7 278.644C864.4 279.044 864.3 279.644 863.6 280.144Z" fill="#24126A"/>
<path d="M876.9 287.744L868.8 292.444C868.1 292.844 866.9 292.944 866.2 292.544L857.7 287.544C857 287.144 857 286.444 857.8 286.044L865.8 281.344C866.5 280.944 867.7 280.944 868.4 281.344L877 286.244C877.7 286.644 877.6 287.344 876.9 287.744Z" fill="#24126A"/>
<path d="M890.1 295.444L882.1 300.144C881.4 300.544 880.2 300.544 879.5 300.144L870.9 295.244C870.2 294.844 870.3 294.144 871 293.744L879 289.044C879.8 288.544 881 288.544 881.6 288.944L890.2 293.944C890.9 294.344 890.9 294.944 890.1 295.444Z" fill="#24126A"/>
<path d="M913.7 309.044L905.7 313.744C904.9 314.144 903.8 314.144 903.1 313.744L884.3 302.944C883.7 302.544 883.7 301.944 884.4 301.444L892.5 296.744C893.2 296.344 894.4 296.344 895.1 296.744L913.8 307.544C914.5 307.944 914.4 308.644 913.7 309.044Z" fill="#24126A"/>
<path d="M889.4 323.244L881.4 327.944C880.6 328.344 879.5 328.344 878.8 328.044L863 318.844C862.3 318.444 862.3 317.744 863.1 317.344L871.1 312.644C871.8 312.244 873 312.244 873.7 312.644L889.5 321.744C890.2 322.144 890.1 322.844 889.4 323.244Z" fill="#24126A"/>
<path d="M782.2 247.244L774.2 251.944C773.4 252.344 772.3 252.344 771.6 251.944L763 247.044C762.3 246.644 762.3 245.944 763.1 245.544L771.1 240.844C771.9 240.444 773 240.344 773.7 240.744L782.3 245.744C783 246.144 782.9 246.844 782.2 247.244Z" fill="#24126A"/>
<path d="M768.6 239.344L760.6 244.044C759.8 244.544 758.7 244.544 758 244.144L749.4 239.144C748.7 238.744 748.8 238.144 749.5 237.644L757.5 232.944C758.3 232.544 759.4 232.544 760.1 232.944L768.7 237.844C769.4 238.244 769.3 238.944 768.6 239.344Z" fill="#24126A"/>
<path d="M755 231.544L747 236.244C746.2 236.644 745.1 236.644 744.4 236.344L735.8 231.344C735.1 230.944 735.2 230.244 735.9 229.844L743.9 225.144C744.7 224.744 745.8 224.644 746.5 225.044L755.1 230.044C755.8 230.444 755.8 231.144 755 231.544Z" fill="#24126A"/>
<path d="M741.4 223.744L733.4 228.344C732.7 228.844 731.5 228.844 730.8 228.444L722.2 223.444C721.5 223.044 721.6 222.444 722.3 221.944L730.3 217.344C731.1 216.844 732.2 216.844 732.9 217.244L741.5 222.144C742.2 222.544 742.2 223.244 741.4 223.744Z" fill="#24126A"/>
<path d="M795.5 254.844L787.4 259.544C786.7 260.044 785.5 260.044 784.8 259.644L776.2 254.644C775.6 254.244 775.6 253.644 776.4 253.144L784.4 248.444C785.1 248.044 786.3 248.044 787 248.444L795.6 253.344C796.2 253.744 796.2 254.444 795.5 254.844Z" fill="#24126A"/>
<path d="M808.7 262.544L800.7 267.244C799.9 267.644 798.8 267.744 798.1 267.344L789.5 262.344C788.8 261.944 788.9 261.244 789.6 260.844L797.6 256.144C798.4 255.744 799.5 255.644 800.2 256.044L808.8 261.044C809.5 261.444 809.5 262.144 808.7 262.544Z" fill="#24126A"/>
<path d="M822 270.244L814 274.844C813.2 275.344 812 275.344 811.4 274.944L802.8 270.044C802.1 269.644 802.1 268.944 802.9 268.444L810.9 263.844C811.6 263.344 812.8 263.344 813.5 263.744L822.1 268.644C822.8 269.044 822.7 269.744 822 270.244Z" fill="#24126A"/>
<path d="M835.2 277.844L827.2 282.544C826.5 282.944 825.3 283.044 824.6 282.644L816 277.644C815.3 277.244 815.4 276.544 816.1 276.144L824.1 271.444C824.9 271.044 826.1 270.944 826.8 271.344L835.3 276.344C836 276.744 836 277.444 835.2 277.844Z" fill="#24126A"/>
<path d="M848.5 285.544L840.5 290.244C839.7 290.644 838.6 290.644 837.9 290.244L829.3 285.344C828.6 284.944 828.6 284.244 829.4 283.844L837.4 279.144C838.2 278.644 839.3 278.644 840 279.044L848.6 284.044C849.3 284.444 849.2 285.044 848.5 285.544Z" fill="#24126A"/>
<path d="M861.8 293.144L853.7 297.844C853 298.244 851.8 298.344 851.1 297.944L842.6 292.944C841.9 292.544 841.9 291.844 842.7 291.444L850.7 286.744C851.4 286.344 852.6 286.344 853.3 286.744L861.9 291.644C862.6 292.044 862.5 292.744 861.8 293.144Z" fill="#24126A"/>
<path d="M875 300.844L867 305.544C866.3 305.944 865.1 305.944 864.4 305.544L855.8 300.644C855.1 300.244 855.2 299.544 855.9 299.144L863.9 294.444C864.7 293.944 865.8 293.944 866.5 294.344L875.1 299.344C875.8 299.744 875.8 300.344 875 300.844Z" fill="#24126A"/>
<path d="M888.3 308.444L880.3 313.144C879.5 313.644 878.3 313.644 877.7 313.244L869.1 308.244C868.4 307.844 868.4 307.244 869.2 306.744L877.2 302.044C877.9 301.644 879.1 301.644 879.8 302.044L888.4 306.944C889.1 307.344 889 308.044 888.3 308.444Z" fill="#24126A"/>
<path d="M901.5 316.144L893.5 320.844C892.8 321.244 891.6 321.244 890.9 320.944L882.3 315.944C881.6 315.544 881.7 314.844 882.4 314.444L890.5 309.744C891.2 309.344 892.4 309.244 893.1 309.644L901.6 314.644C902.3 315.044 902.3 315.744 901.5 316.144Z" fill="#24126A"/>
<path d="M750.1 242.844L742.1 247.544C741.4 247.944 740.2 248.044 739.5 247.644L730.9 242.644C730.2 242.244 730.3 241.544 731 241.144L739.1 236.444C739.8 236.044 741 235.944 741.7 236.344L750.3 241.344C750.9 241.744 750.9 242.444 750.1 242.844Z" fill="#24126A"/>
<path d="M736.9 235.244L728.9 239.944C728.2 240.344 727 240.344 726.3 239.944L717.7 235.044C717.1 234.644 717.1 233.944 717.9 233.544L725.9 228.844C726.6 228.444 727.8 228.344 728.5 228.744L737.1 233.744C737.7 234.144 737.7 234.844 736.9 235.244Z" fill="#24126A"/>
<path d="M723.8 227.644L715.7 232.344C715 232.744 713.8 232.744 713.1 232.344L704.5 227.444C703.9 227.044 703.9 226.344 704.7 225.944L712.7 221.244C713.4 220.744 714.6 220.744 715.3 221.144L723.9 226.144C724.6 226.544 724.5 227.144 723.8 227.644Z" fill="#24126A"/>
<path d="M710.6 220.044L702.5 224.644C701.8 225.144 700.6 225.144 699.9 224.744L691.4 219.744C690.7 219.444 690.7 218.744 691.5 218.244L699.5 213.644C700.2 213.144 701.4 213.144 702.1 213.544L710.7 218.444C711.4 218.844 711.3 219.544 710.6 220.044Z" fill="#24126A"/>
<path d="M697.8 227.444L695.1 229.044C694.4 229.444 693.2 229.444 692.5 229.044L683.9 224.144C683.3 223.744 683.3 223.044 684 222.644L686.7 221.044C687.4 220.644 688.6 220.544 689.3 220.944L697.9 225.944C698.6 226.344 698.5 227.044 697.8 227.444Z" fill="#24126A"/>
<path d="M715 237.444L712.4 238.944C711.6 239.344 710.4 239.444 709.7 239.044L701.2 234.044C700.5 233.644 700.5 232.944 701.3 232.544L703.9 231.044C704.7 230.544 705.8 230.544 706.5 230.944L715.1 235.844C715.8 236.244 715.8 236.944 715 237.444Z" fill="#24126A"/>
<path d="M728.1 244.944L725.5 246.544C724.7 246.944 723.6 247.044 722.9 246.644L714.3 241.644C713.6 241.244 713.7 240.544 714.4 240.144L717.1 238.544C717.8 238.144 719 238.144 719.7 238.544L728.2 243.444C728.9 243.844 728.9 244.544 728.1 244.944Z" fill="#24126A"/>
<path d="M741.3 252.544L738.6 254.144C737.9 254.544 736.7 254.544 736 254.244L727.4 249.244C726.8 248.844 726.8 248.144 727.5 247.744L730.2 246.144C730.9 245.744 732.1 245.744 732.8 246.144L741.4 251.044C742.1 251.444 742 252.144 741.3 252.544Z" fill="#24126A"/>
<path d="M754.4 260.144L751.8 261.744C751 262.144 749.9 262.144 749.2 261.744L740.6 256.844C739.9 256.444 739.9 255.744 740.7 255.344L743.3 253.744C744.1 253.344 745.3 253.244 745.9 253.644L754.5 258.644C755.2 259.044 755.2 259.744 754.4 260.144Z" fill="#24126A"/>
<path d="M827.8 302.544L825.1 304.044C824.4 304.544 823.2 304.544 822.5 304.144L813.9 299.144C813.2 298.744 813.3 298.144 814 297.644L816.7 296.144C817.4 295.644 818.6 295.644 819.3 296.044L827.9 301.044C828.6 301.444 828.5 302.044 827.8 302.544Z" fill="#24126A"/>
<path d="M840.9 310.144L838.3 311.644C837.5 312.044 836.4 312.144 835.7 311.744L827.1 306.744C826.4 306.344 826.4 305.644 827.2 305.244L829.8 303.744C830.6 303.244 831.8 303.244 832.4 303.644L841 308.544C841.7 308.944 841.7 309.644 840.9 310.144Z" fill="#24126A"/>
<path d="M854.1 317.644L851.4 319.244C850.7 319.644 849.5 319.744 848.8 319.344L840.2 314.344C839.5 313.944 839.6 313.244 840.3 312.844L843 311.244C843.7 310.844 844.9 310.844 845.6 311.244L854.2 316.144C854.9 316.544 854.8 317.244 854.1 317.644Z" fill="#24126A"/>
<path d="M867.2 325.244L864.6 326.844C863.8 327.244 862.6 327.244 861.9 326.944L853.4 321.944C852.7 321.544 852.7 320.844 853.5 320.444L856.1 318.844C856.9 318.444 858 318.444 858.7 318.844L867.3 323.744C868 324.144 868 324.844 867.2 325.244Z" fill="#24126A"/>
<path d="M763.4 250.544L755.4 255.144C754.6 255.644 753.5 255.644 752.8 255.244L744.2 250.344C743.5 249.944 743.6 249.244 744.3 248.744L752.3 244.144C753.1 243.644 754.2 243.644 754.9 244.044L763.5 249.044C764.2 249.344 764.2 250.044 763.4 250.544Z" fill="#24126A"/>
<path d="M776.7 258.144L768.7 262.844C767.9 263.244 766.7 263.344 766 262.944L757.5 257.944C756.8 257.544 756.8 256.844 757.6 256.444L765.6 251.744C766.3 251.344 767.5 251.344 768.2 251.644L776.8 256.644C777.5 257.044 777.4 257.744 776.7 258.144Z" fill="#24126A"/>
<path d="M789.9 265.844L781.9 270.544C781.2 270.944 780 270.944 779.3 270.544L770.7 265.644C770 265.244 770.1 264.544 770.8 264.144L778.8 259.444C779.6 258.944 780.8 258.944 781.4 259.344L790 264.344C790.7 264.744 790.7 265.344 789.9 265.844Z" fill="#24126A"/>
<path d="M803.2 273.444L795.2 278.144C794.4 278.644 793.3 278.644 792.6 278.244L784 273.244C783.3 272.844 783.3 272.244 784.1 271.744L792.1 267.044C792.9 266.644 794 266.644 794.7 267.044L803.3 271.944C804 272.344 803.9 273.044 803.2 273.444Z" fill="#24126A"/>
<path d="M816.4 281.144L808.4 285.844C807.7 286.244 806.5 286.244 805.8 285.844L797.2 280.944C796.6 280.544 796.6 279.844 797.4 279.444L805.4 274.744C806.1 274.344 807.3 274.244 808 274.644L816.6 279.644C817.2 280.044 817.2 280.744 816.4 281.144Z" fill="#24126A"/>
<path d="M829.7 288.744L821.7 293.444C820.9 293.944 819.8 293.944 819.1 293.544L810.5 288.544C809.8 288.144 809.9 287.544 810.6 287.044L818.6 282.344C819.4 281.944 820.5 281.944 821.2 282.344L829.8 287.244C830.5 287.644 830.5 288.344 829.7 288.744Z" fill="#24126A"/>
<path d="M843 296.444L835 301.144C834.2 301.544 833 301.644 832.4 301.244L823.8 296.244C823.1 295.844 823.1 295.144 823.9 294.744L831.9 290.044C832.6 289.644 833.8 289.544 834.5 289.944L843.1 294.944C843.8 295.344 843.7 296.044 843 296.444Z" fill="#24126A"/>
<path d="M856.2 304.144L848.2 308.744C847.5 309.244 846.3 309.244 845.6 308.844L837 303.944C836.3 303.544 836.4 302.844 837.1 302.344L845.1 297.744C845.9 297.244 847.1 297.244 847.8 297.644L856.3 302.544C857 302.944 857 303.644 856.2 304.144Z" fill="#24126A"/>
<path d="M869.5 311.744L861.5 316.444C860.7 316.844 859.6 316.944 858.9 316.544L850.3 311.544C849.6 311.144 849.6 310.444 850.4 310.044L858.4 305.344C859.2 304.944 860.3 304.844 861 305.244L869.6 310.244C870.3 310.644 870.2 311.344 869.5 311.744Z" fill="#24126A"/>
<path d="M762.8 207.744L754.8 212.444C754 212.944 752.9 212.944 752.2 212.544L726.9 197.944C726.2 197.544 726.2 196.844 727 196.444L735 191.744C735.7 191.344 736.9 191.244 737.6 191.644L762.9 206.244C763.6 206.644 763.5 207.344 762.8 207.744Z" fill="#24126A"/>
<path d="M925.7 301.844L917.7 306.544C916.9 306.944 915.8 307.044 915.1 306.644L889.8 292.044C889.1 291.644 889.1 290.944 889.9 290.444L897.9 285.844C898.7 285.344 899.8 285.344 900.5 285.744L925.8 300.344C926.5 300.744 926.4 301.444 925.7 301.844Z" fill="#24126A"/>
<path d="M901.1 271.644L891.6 277.244C890.8 277.644 889.6 277.644 888.9 277.244L880.4 272.344C879.7 271.944 879.7 271.244 880.5 270.844L890 265.244C890.8 264.744 891.9 264.744 892.6 265.144L901.2 270.144C901.9 270.544 901.8 271.144 901.1 271.644Z" fill="#24126A"/>
<path d="M804.8 216.044L795.3 221.644C794.5 222.044 793.3 222.044 792.6 221.644L778.9 213.744C778.2 213.344 778.3 212.644 779 212.244L788.6 206.644C789.3 206.244 790.5 206.144 791.2 206.544L804.9 214.544C805.6 214.944 805.5 215.544 804.8 216.044Z" fill="#24126A"/>
<path d="M888.3 264.244L878.8 269.844C878 270.244 876.9 270.344 876.2 269.944L862.4 261.944C861.7 261.544 861.8 260.944 862.5 260.444L872.1 254.844C872.8 254.444 874 254.444 874.7 254.844L888.4 262.744C889.1 263.144 889.1 263.844 888.3 264.244Z" fill="#24126A"/>
<path d="M823.9 227.044L814.4 232.644C813.6 233.044 812.5 233.144 811.8 232.744L798 224.844C797.4 224.444 797.4 223.744 798.2 223.244L807.7 217.744C808.4 217.244 809.6 217.244 810.3 217.644L824 225.544C824.7 225.944 824.7 226.644 823.9 227.044Z" fill="#24126A"/>
<path d="M810.4 217.644L870.1 252.144C870.8 252.544 870.9 253.244 870.2 253.644L860.5 259.344C859.8 259.744 858.6 259.744 857.8 259.344L798.1 224.844L810.4 217.644Z" fill="#24126A"/>
<path d="M912.3 282.344L916.3 280.144C916.9 279.744 917.8 279.744 918.4 280.044L928 285.544C928.5 285.844 928.5 286.444 927.9 286.844L924 289.044C923.3 289.444 922.4 289.444 921.8 289.144L912.3 283.644C911.7 283.244 911.7 282.744 912.3 282.344Z" fill="#24126A"/>
<path d="M899.1 274.744L903 272.444C903.6 272.044 904.6 272.044 905.1 272.344L914.7 277.944C915.3 278.244 915.2 278.744 914.6 279.144L910.7 281.444C910.1 281.744 909.1 281.844 908.6 281.444L899 275.944C898.4 275.644 898.5 275.044 899.1 274.744Z" fill="#24126A"/>
<path d="M905.5 286.444L909.4 284.144C910 283.744 910.9 283.744 911.5 284.044L921.1 289.544C921.6 289.944 921.6 290.444 921 290.844L917.1 293.144C916.5 293.444 915.5 293.544 914.9 293.144L905.4 287.644C904.8 287.344 904.8 286.744 905.5 286.444Z" fill="#24126A"/>
</g>
</g>
</g>
<g opacity="0.8">
<path d="M573.1 295.244L564.6 290.344C563.9 289.944 564 289.244 564.8 288.844L574.8 283.044C575.6 282.544 576.8 282.544 577.5 282.944L586 287.844C586.7 288.244 586.6 288.844 585.8 289.344L575.7 295.144C575 295.644 573.8 295.644 573.1 295.244Z" fill="#24126A"/>
<path d="M586.2 302.844L577.7 297.944C577 297.544 577.1 296.844 577.9 296.344L587.9 290.544C588.7 290.144 589.9 290.044 590.6 290.444L599.1 295.344C599.8 295.744 599.7 296.444 598.9 296.944L588.9 302.744C588.1 303.144 586.9 303.244 586.2 302.844Z" fill="#24126A"/>
<path d="M599.4 310.444L590.8 305.544C590.2 305.144 590.3 304.444 591 303.944L601.1 298.144C601.9 297.744 603.1 297.644 603.7 298.044L612.2 302.944C612.9 303.344 612.8 304.044 612.1 304.544L602 310.344C601.2 310.744 600 310.844 599.4 310.444Z" fill="#24126A"/>
<path d="M617.5 304.144L609 299.244C608.3 298.844 608.4 298.144 609.2 297.744L617.6 292.844C618.4 292.344 619.6 292.344 620.3 292.744L628.8 297.644C629.5 298.044 629.4 298.744 628.6 299.144L620.2 304.044C619.4 304.544 618.2 304.544 617.5 304.144Z" fill="#24126A"/>
<path d="M630.6 311.744L622.1 306.844C621.5 306.444 621.5 305.744 622.3 305.244L630.8 300.444C631.6 299.944 632.7 299.944 633.4 300.344L641.9 305.244C642.6 305.644 642.5 306.344 641.7 306.744L633.3 311.644C632.5 312.044 631.3 312.144 630.6 311.744Z" fill="#24126A"/>
<path d="M643.8 319.344L635.3 314.444C634.6 314.044 634.7 313.344 635.5 312.844L643.9 308.044C644.7 307.544 645.9 307.544 646.6 307.944L655.1 312.844C655.7 313.244 655.7 313.844 654.9 314.344L646.4 319.244C645.7 319.644 644.5 319.744 643.8 319.344Z" fill="#24126A"/>
<path d="M656.9 326.944L648.4 322.044C647.7 321.644 647.8 320.944 648.6 320.444L657 315.544C657.8 315.144 659 315.044 659.7 315.444L668.2 320.344C668.9 320.744 668.8 321.444 668 321.944L659.6 326.744C658.8 327.244 657.6 327.344 656.9 326.944Z" fill="#24126A"/>
<path d="M670 334.444L661.5 329.544C660.9 329.144 660.9 328.444 661.7 328.044L670.2 323.144C671 322.744 672.1 322.644 672.8 323.044L681.3 327.944C682 328.344 681.9 329.044 681.1 329.544L672.7 334.344C671.9 334.844 670.7 334.844 670 334.444Z" fill="#24126A"/>
<path d="M683.2 342.044L674.7 337.144C674 336.744 674.1 336.044 674.9 335.644L683.3 330.744C684.1 330.344 685.3 330.244 686 330.644L694.5 335.544C695.1 335.944 695.1 336.644 694.3 337.044L685.8 341.944C685.1 342.444 683.9 342.444 683.2 342.044Z" fill="#24126A"/>
<path d="M696.3 349.644L687.8 344.744C687.1 344.344 687.2 343.644 688 343.244L696.4 338.344C697.2 337.844 698.4 337.844 699.1 338.244L707.6 343.144C708.3 343.544 708.2 344.244 707.4 344.644L699 349.544C698.2 350.044 697 350.044 696.3 349.644Z" fill="#24126A"/>
<path d="M709.4 357.244L700.9 352.344C700.3 351.944 700.3 351.244 701.1 350.744L709.6 345.944C710.4 345.444 711.5 345.444 712.2 345.844L720.7 350.744C721.4 351.144 721.3 351.844 720.5 352.244L712.1 357.144C711.3 357.544 710.1 357.644 709.4 357.244Z" fill="#24126A"/>
<path d="M722.6 364.844L714.1 359.944C713.4 359.544 713.5 358.844 714.3 358.344L722.7 353.544C723.5 353.044 724.7 353.044 725.4 353.344L733.9 358.344C734.5 358.744 734.5 359.344 733.7 359.844L725.2 364.744C724.5 365.144 723.3 365.244 722.6 364.844Z" fill="#24126A"/>
<path d="M735.7 372.444L727.2 367.444C726.5 367.144 726.6 366.444 727.4 365.944L735.8 361.044C736.6 360.644 737.8 360.544 738.5 360.944L747 365.844C747.7 366.244 747.6 366.944 746.8 367.444L738.4 372.244C737.6 372.744 736.4 372.744 735.7 372.444Z" fill="#24126A"/>
<path d="M636.9 300.544L628.4 295.644C627.7 295.244 627.8 294.544 628.6 294.144L637 289.244C637.8 288.844 639 288.744 639.6 289.144L648.1 294.044C648.8 294.444 648.7 295.144 648 295.544L639.5 300.444C638.7 300.944 637.6 300.944 636.9 300.544Z" fill="#24126A"/>
<path d="M623.5 292.844L615 287.944C614.4 287.544 614.4 286.844 615.2 286.444L623.7 281.544C624.4 281.144 625.6 281.044 626.3 281.444L634.8 286.344C635.5 286.744 635.4 287.444 634.6 287.944L626.2 292.744C625.4 293.244 624.2 293.244 623.5 292.844Z" fill="#24126A"/>
<path d="M610.2 285.144L591.9 274.544C591.2 274.244 591.3 273.544 592.1 273.044L600.5 268.144C601.3 267.744 602.5 267.644 603.2 268.044L621.5 278.644C622.2 279.044 622.1 279.744 621.3 280.144L612.9 285.044C612.1 285.544 610.9 285.544 610.2 285.144Z" fill="#24126A"/>
<path d="M619.5 275.744L604.7 267.244C604 266.844 604.1 266.144 604.8 265.644L613.3 260.844C614.1 260.344 615.3 260.344 615.9 260.644L630.8 269.244C631.5 269.644 631.4 270.344 630.6 270.844L622.2 275.644C621.4 276.144 620.2 276.144 619.5 275.744Z" fill="#24126A"/>
<path d="M650 308.144L641.5 303.244C640.8 302.844 640.9 302.144 641.7 301.744L650.1 296.844C650.9 296.344 652.1 296.344 652.8 296.744L661.3 301.644C662 302.044 661.9 302.744 661.1 303.144L652.7 308.044C651.9 308.544 650.7 308.544 650 308.144Z" fill="#24126A"/>
<path d="M663.1 315.744L654.6 310.844C653.9 310.444 654 309.744 654.8 309.244L663.2 304.444C664 303.944 665.2 303.944 665.9 304.344L674.4 309.244C675.1 309.644 675 310.344 674.2 310.744L665.8 315.644C665 316.044 663.8 316.144 663.1 315.744Z" fill="#24126A"/>
<path d="M676.3 323.344L667.8 318.444C667.1 318.044 667.2 317.344 668 316.844L676.4 312.044C677.2 311.544 678.4 311.544 679 311.844L687.5 316.844C688.2 317.244 688.1 317.844 687.4 318.344L678.9 323.244C678.1 323.644 677 323.744 676.3 323.344Z" fill="#24126A"/>
<path d="M689.4 330.944L680.9 325.944C680.2 325.544 680.3 324.944 681.1 324.444L689.5 319.544C690.3 319.144 691.5 319.044 692.2 319.444L700.7 324.344C701.4 324.744 701.3 325.444 700.5 325.944L692.1 330.744C691.3 331.244 690.1 331.244 689.4 330.944Z" fill="#24126A"/>
<path d="M702.5 338.444L694 333.544C693.3 333.144 693.4 332.444 694.2 332.044L702.6 327.144C703.4 326.744 704.6 326.644 705.3 327.044L713.8 331.944C714.5 332.344 714.4 333.044 713.6 333.544L705.2 338.344C704.4 338.844 703.2 338.844 702.5 338.444Z" fill="#24126A"/>
<path d="M715.7 346.044L707.2 341.144C706.5 340.744 706.6 340.044 707.4 339.644L715.8 334.744C716.6 334.244 717.8 334.244 718.4 334.644L726.9 339.544C727.6 339.944 727.5 340.644 726.8 341.044L718.3 345.944C717.5 346.444 716.3 346.444 715.7 346.044Z" fill="#24126A"/>
<path d="M728.8 353.644L720.3 348.744C719.6 348.344 719.7 347.644 720.5 347.244L728.9 342.344C729.7 341.844 730.9 341.844 731.6 342.244L740.1 347.144C740.8 347.544 740.7 348.244 739.9 348.644L731.5 353.544C730.7 353.944 729.5 354.044 728.8 353.644Z" fill="#24126A"/>
<path d="M741.9 361.244L733.4 356.344C732.7 355.944 732.8 355.244 733.6 354.744L742 349.944C742.8 349.444 744 349.444 744.7 349.844L753.2 354.744C753.9 355.144 753.8 355.844 753 356.244L744.6 361.144C743.8 361.544 742.6 361.644 741.9 361.244Z" fill="#24126A"/>
<path d="M755.1 368.844L746.6 363.944C745.9 363.544 746 362.844 746.8 362.344L755.2 357.544C756 357.044 757.2 356.944 757.8 357.344L766.3 362.344C767 362.644 766.9 363.344 766.2 363.844L757.7 368.744C756.9 369.144 755.7 369.244 755.1 368.844Z" fill="#24126A"/>
<path d="M778.4 382.244L759.9 371.544C759.2 371.144 759.3 370.444 760 370.044L768.5 365.144C769.3 364.744 770.5 364.644 771.1 365.044L789.7 375.744C790.4 376.144 790.3 376.844 789.5 377.344L781.1 382.144C780.3 382.644 779.1 382.644 778.4 382.244Z" fill="#24126A"/>
<path d="M804 367.544L788.3 358.444C787.6 358.044 787.7 357.444 788.5 356.944L796.9 352.044C797.7 351.644 798.9 351.544 799.6 351.944L815.3 361.044C815.9 361.444 815.9 362.144 815.1 362.544L806.6 367.444C805.9 367.844 804.7 367.944 804 367.544Z" fill="#24126A"/>
<path d="M673 306.644L664.5 301.744C663.8 301.344 663.9 300.644 664.7 300.244L673.1 295.344C673.9 294.944 675.1 294.844 675.8 295.244L684.3 300.144C685 300.544 684.9 301.244 684.1 301.644L675.7 306.544C674.9 307.044 673.7 307.044 673 306.644Z" fill="#24126A"/>
<path d="M659.5 298.944L651 293.944C650.4 293.544 650.4 292.944 651.2 292.444L659.7 287.544C660.4 287.144 661.6 287.044 662.3 287.444L670.8 292.344C671.5 292.744 671.4 293.444 670.6 293.944L662.2 298.744C661.4 299.244 660.2 299.244 659.5 298.944Z" fill="#24126A"/>
<path d="M646.1 291.144L637.6 286.244C636.9 285.844 637 285.144 637.8 284.644L646.2 279.844C647 279.344 648.2 279.344 648.9 279.744L657.4 284.644C658 285.044 658 285.644 657.2 286.144L648.7 291.044C648 291.444 646.8 291.544 646.1 291.144Z" fill="#24126A"/>
<path d="M632.6 283.344L624.1 278.444C623.4 278.044 623.5 277.344 624.3 276.944L632.7 272.044C633.5 271.544 634.7 271.544 635.4 271.944L643.9 276.844C644.6 277.244 644.5 277.944 643.7 278.344L635.3 283.244C634.5 283.744 633.3 283.744 632.6 283.344Z" fill="#24126A"/>
<path d="M686.1 314.244L677.6 309.344C676.9 308.944 677 308.244 677.8 307.844L686.2 302.944C687 302.444 688.2 302.444 688.9 302.844L697.4 307.744C698.1 308.144 698 308.844 697.2 309.244L688.8 314.144C688 314.544 686.8 314.644 686.1 314.244Z" fill="#24126A"/>
<path d="M699.3 321.844L690.8 316.944C690.1 316.544 690.2 315.844 691 315.344L699.4 310.544C700.2 310.044 701.4 310.044 702 310.444L710.5 315.344C711.2 315.744 711.1 316.444 710.4 316.844L701.9 321.744C701.1 322.144 699.9 322.244 699.3 321.844Z" fill="#24126A"/>
<path d="M712.4 329.444L703.9 324.544C703.2 324.144 703.3 323.444 704.1 322.944L712.5 318.144C713.3 317.644 714.5 317.644 715.2 317.944L723.7 322.944C724.4 323.344 724.3 323.944 723.5 324.444L715.1 329.344C714.3 329.744 713.1 329.844 712.4 329.444Z" fill="#24126A"/>
<path d="M725.5 337.044L717 332.044C716.3 331.644 716.4 331.044 717.2 330.544L725.6 325.644C726.4 325.244 727.6 325.144 728.3 325.544L736.8 330.444C737.5 330.844 737.4 331.544 736.6 332.044L728.2 336.844C727.4 337.344 726.2 337.344 725.5 337.044Z" fill="#24126A"/>
<path d="M738.7 344.544L730.2 339.644C729.5 339.244 729.6 338.544 730.4 338.144L738.8 333.244C739.6 332.844 740.8 332.744 741.4 333.144L749.9 338.044C750.6 338.444 750.5 339.144 749.8 339.644L741.3 344.444C740.5 344.944 739.3 344.944 738.7 344.544Z" fill="#24126A"/>
<path d="M751.8 352.144L743.3 347.244C742.6 346.844 742.7 346.144 743.5 345.744L751.9 340.844C752.7 340.344 753.9 340.344 754.6 340.744L763.1 345.644C763.8 346.044 763.7 346.744 762.9 347.144L754.5 352.044C753.7 352.544 752.5 352.544 751.8 352.144Z" fill="#24126A"/>
<path d="M764.9 359.744L756.4 354.844C755.7 354.444 755.8 353.744 756.6 353.344L765 348.444C765.8 347.944 767 347.944 767.7 348.344L776.2 353.244C776.9 353.644 776.8 354.344 776 354.744L767.6 359.644C766.8 360.044 765.6 360.144 764.9 359.744Z" fill="#24126A"/>
<path d="M778.1 367.344L769.6 362.444C768.9 362.044 769 361.344 769.8 360.844L778.2 356.044C779 355.544 780.2 355.544 780.8 355.944L789.3 360.844C790 361.244 789.9 361.944 789.2 362.344L780.7 367.244C779.9 367.644 778.7 367.744 778.1 367.344Z" fill="#24126A"/>
<path d="M791.2 374.944L782.7 370.044C782 369.644 782.1 368.944 782.9 368.444L791.3 363.644C792.1 363.144 793.3 363.044 794 363.444L802.5 368.444C803.2 368.744 803.1 369.444 802.3 369.944L793.9 374.844C793.1 375.244 791.9 375.344 791.2 374.944Z" fill="#24126A"/>
<path d="M666.1 287.944L657.6 283.044C656.9 282.644 657 281.944 657.8 281.444L666.2 276.644C667 276.144 668.2 276.044 668.9 276.444L677.4 281.444C678 281.744 678 282.444 677.2 282.944L668.7 287.844C668 288.244 666.8 288.344 666.1 287.944Z" fill="#24126A"/>
<path d="M653 280.344L644.5 275.444C643.8 275.044 643.9 274.344 644.7 273.944L653.1 269.044C653.9 268.644 655.1 268.544 655.8 268.944L664.3 273.844C665 274.244 664.9 274.944 664.1 275.344L655.7 280.244C654.9 280.744 653.7 280.744 653 280.344Z" fill="#24126A"/>
<path d="M639.9 272.844L631.4 267.944C630.8 267.544 630.8 266.844 631.6 266.344L640.1 261.544C640.9 261.044 642 261.044 642.7 261.444L651.2 266.344C651.9 266.744 651.8 267.344 651 267.844L642.6 272.744C641.8 273.144 640.6 273.244 639.9 272.844Z" fill="#24126A"/>
<path d="M626.9 265.244L618.4 260.344C617.7 259.944 617.8 259.244 618.6 258.844L627 253.944C627.8 253.544 629 253.444 629.7 253.844L638.2 258.744C638.8 259.144 638.8 259.844 638 260.344L629.5 265.144C628.8 265.644 627.6 265.644 626.9 265.244Z" fill="#24126A"/>
<path d="M640.3 257.544L631.8 252.644C631.1 252.244 631.2 251.544 632 251.044L634.8 249.444C635.6 249.044 636.8 248.944 637.5 249.344L646 254.244C646.6 254.644 646.6 255.344 645.8 255.844L643 257.444C642.2 257.844 641 257.944 640.3 257.544Z" fill="#24126A"/>
<path d="M657.4 267.344L648.9 262.444C648.2 262.044 648.3 261.344 649.1 260.944L651.8 259.344C652.6 258.844 653.8 258.844 654.5 259.244L663 264.144C663.7 264.544 663.6 265.144 662.8 265.644L660 267.244C659.2 267.744 658.1 267.744 657.4 267.344Z" fill="#24126A"/>
<path d="M670.4 274.844L661.9 269.944C661.2 269.544 661.3 268.844 662.1 268.444L664.9 266.844C665.6 266.344 666.8 266.344 667.5 266.744L676 271.644C676.7 272.044 676.6 272.744 675.8 273.144L673 274.744C672.3 275.244 671.1 275.244 670.4 274.844Z" fill="#24126A"/>
<path d="M683.4 282.344L674.9 277.444C674.2 277.044 674.3 276.444 675.1 275.944L677.9 274.344C678.7 273.844 679.9 273.844 680.5 274.244L689 279.144C689.7 279.544 689.6 280.244 688.8 280.644L686.1 282.244C685.3 282.744 684.1 282.744 683.4 282.344Z" fill="#24126A"/>
<path d="M696.4 289.944L687.9 285.044C687.2 284.644 687.3 283.944 688.1 283.444L690.9 281.844C691.7 281.344 692.9 281.344 693.5 281.744L702.1 286.644C702.7 287.044 702.7 287.744 701.9 288.144L699.1 289.744C698.3 290.244 697.1 290.344 696.4 289.944Z" fill="#24126A"/>
<path d="M769.1 331.844L760.6 326.944C759.9 326.544 760 325.844 760.8 325.444L763.5 323.744C764.3 323.344 765.5 323.244 766.2 323.644L774.7 328.544C775.4 328.944 775.3 329.644 774.5 330.144L771.7 331.744C770.9 332.244 769.7 332.244 769.1 331.844Z" fill="#24126A"/>
<path d="M782.1 339.344L773.6 334.444C772.9 334.044 773 333.344 773.8 332.944L776.6 331.344C777.3 330.844 778.5 330.844 779.2 331.244L787.7 336.144C788.4 336.544 788.3 337.144 787.5 337.644L784.7 339.244C784 339.744 782.8 339.744 782.1 339.344Z" fill="#24126A"/>
<path d="M795.1 346.844L786.6 341.944C785.9 341.544 786 340.844 786.8 340.444L789.6 338.844C790.4 338.344 791.5 338.344 792.2 338.744L800.7 343.644C801.4 344.044 801.3 344.744 800.5 345.144L797.8 346.744C797 347.244 795.8 347.244 795.1 346.844Z" fill="#24126A"/>
<path d="M808.1 354.344L799.6 349.444C798.9 349.044 799 348.444 799.8 347.944L802.6 346.344C803.4 345.844 804.6 345.844 805.2 346.244L813.7 351.144C814.4 351.544 814.3 352.244 813.6 352.644L810.8 354.244C810 354.744 808.8 354.744 808.1 354.344Z" fill="#24126A"/>
<path d="M679.2 295.444L670.7 290.544C670 290.144 670.1 289.544 670.9 289.044L679.3 284.144C680.1 283.744 681.3 283.644 682 284.044L690.5 288.944C691.2 289.344 691.1 290.044 690.3 290.544L681.9 295.344C681.1 295.844 679.9 295.844 679.2 295.444Z" fill="#24126A"/>
<path d="M692.4 303.044L683.8 298.144C683.2 297.744 683.2 297.044 684 296.644L692.5 291.744C693.3 291.344 694.4 291.244 695.1 291.644L703.6 296.544C704.3 296.944 704.2 297.644 703.4 298.144L695 302.944C694.2 303.444 693 303.444 692.4 303.044Z" fill="#24126A"/>
<path d="M705.5 310.644L697 305.744C696.3 305.344 696.4 304.644 697.2 304.244L705.6 299.344C706.4 298.844 707.6 298.844 708.3 299.244L716.8 304.144C717.4 304.544 717.4 305.244 716.6 305.644L708.1 310.544C707.4 311.044 706.2 311.044 705.5 310.644Z" fill="#24126A"/>
<path d="M718.6 318.244L710.1 313.344C709.4 312.944 709.5 312.244 710.3 311.744L718.7 306.944C719.5 306.444 720.7 306.444 721.4 306.844L729.9 311.744C730.6 312.144 730.5 312.844 729.7 313.244L721.3 318.144C720.5 318.544 719.3 318.644 718.6 318.244Z" fill="#24126A"/>
<path d="M731.8 325.844L723.2 320.944C722.6 320.544 722.6 319.844 723.4 319.344L731.9 314.544C732.7 314.044 733.8 314.044 734.5 314.444L743 319.344C743.7 319.744 743.6 320.344 742.8 320.844L734.4 325.744C733.6 326.144 732.4 326.244 731.8 325.844Z" fill="#24126A"/>
<path d="M744.9 333.444L736.4 328.544C735.7 328.144 735.8 327.444 736.6 326.944L745 322.044C745.8 321.644 747 321.544 747.7 321.944L756.2 326.844C756.8 327.244 756.8 327.944 756 328.444L747.5 333.344C746.8 333.744 745.6 333.844 744.9 333.444Z" fill="#24126A"/>
<path d="M758 340.944L749.5 336.044C748.8 335.644 748.9 335.044 749.7 334.544L758.1 329.644C758.9 329.244 760.1 329.144 760.8 329.544L769.3 334.444C770 334.844 769.9 335.544 769.1 336.044L760.7 340.844C759.9 341.344 758.7 341.344 758 340.944Z" fill="#24126A"/>
<path d="M771.2 348.544L762.6 343.644C762 343.244 762 342.544 762.8 342.144L771.3 337.244C772.1 336.844 773.2 336.744 773.9 337.144L782.4 342.044C783.1 342.444 783 343.144 782.2 343.644L773.8 348.444C773 348.944 771.8 348.944 771.2 348.544Z" fill="#24126A"/>
<path d="M784.3 356.144L775.8 351.244C775.1 350.844 775.2 350.144 776 349.744L784.4 344.844C785.2 344.344 786.4 344.344 787.1 344.744L795.6 349.644C796.2 350.044 796.2 350.744 795.4 351.144L786.9 356.044C786.2 356.544 785 356.544 784.3 356.144Z" fill="#24126A"/>
<path d="M604.1 296.444L579.1 281.944C578.4 281.544 578.5 280.844 579.3 280.444L587.7 275.544C588.5 275.144 589.7 275.044 590.4 275.444L615.4 289.944C616.1 290.344 616 291.044 615.2 291.444L606.8 296.344C606 296.744 604.8 296.844 604.1 296.444Z" fill="#24126A"/>
<path d="M765.5 389.544L740.4 375.144C739.7 374.744 739.8 374.044 740.6 373.544L749 368.744C749.8 368.244 751 368.244 751.7 368.644L776.8 383.044C777.4 383.444 777.4 384.144 776.6 384.644L768.1 389.444C767.4 389.944 766.2 389.944 765.5 389.544Z" fill="#24126A"/>
<path d="M713 376.044L704.5 371.144C703.8 370.744 703.9 370.044 704.6 369.544L714.7 363.744C715.5 363.344 716.7 363.244 717.3 363.644L725.8 368.544C726.5 368.944 726.4 369.644 725.7 370.144L715.6 375.944C714.8 376.344 713.6 376.444 713 376.044Z" fill="#24126A"/>
<path d="M617.6 320.944L604 313.044C603.3 312.744 603.4 312.044 604.2 311.544L614.2 305.744C615 305.344 616.2 305.244 616.9 305.644L630.5 313.544C631.2 313.844 631.1 314.544 630.3 315.044L620.2 320.844C619.5 321.244 618.3 321.344 617.6 320.944Z" fill="#24126A"/>
<path d="M700.3 368.744L686.7 360.844C686 360.444 686.1 359.744 686.9 359.344L696.9 353.544C697.7 353.044 698.9 353.044 699.6 353.444L713.2 361.244C713.9 361.644 713.8 362.344 713 362.844L703 368.544C702.2 369.044 701 369.144 700.3 368.744Z" fill="#24126A"/>
<path d="M636.5 331.844L622.9 324.044C622.2 323.644 622.3 322.944 623.1 322.444L633.2 316.744C633.9 316.244 635.1 316.144 635.8 316.544L649.4 324.444C650.1 324.844 650 325.544 649.2 325.944L639.2 331.744C638.4 332.244 637.2 332.244 636.5 331.844Z" fill="#24126A"/>
<path d="M635.9 316.644L695 350.744C695.8 351.244 695.8 351.844 695 352.344L684.8 358.244C684.1 358.644 682.9 358.644 682.2 358.244L623 324.044L635.9 316.644Z" fill="#24126A"/>
<path d="M749.7 389.744L759.1 395.244C759.7 395.544 759.6 396.144 759 396.444L754.9 398.844C754.2 399.244 753.2 399.244 752.7 398.944L743.2 393.444C742.7 393.144 742.7 392.544 743.4 392.244L747.5 389.844C748.1 389.444 749.1 389.444 749.7 389.744Z" fill="#24126A"/>
<path d="M736.4 382.144L745.9 387.544C746.5 387.944 746.4 388.444 745.7 388.844L741.6 391.244C741 391.544 740 391.644 739.4 391.344L730 385.844C729.4 385.544 729.5 384.944 730.1 384.544L734.2 382.244C734.9 381.844 735.9 381.744 736.4 382.144Z" fill="#24126A"/>
<path d="M723.3 374.544L732.8 380.044C733.3 380.344 733.2 380.844 732.6 381.244L728.5 383.644C727.8 384.044 726.9 384.044 726.3 383.744L716.8 378.244C716.3 377.944 716.3 377.344 717 376.944L721.1 374.644C721.7 374.244 722.7 374.244 723.3 374.544Z" fill="#24126A"/>
<path d="M743.7 377.944L753.1 383.344C753.7 383.744 753.6 384.244 753 384.644L748.9 387.044C748.2 387.444 747.3 387.444 746.7 387.144L737.2 381.644C736.7 381.344 736.7 380.744 737.4 380.344L741.5 378.044C742.1 377.644 743.1 377.644 743.7 377.944Z" fill="#24126A"/>
</g>
<path fill-rule="evenodd" clip-rule="evenodd" d="M877.7 173.544C877.03 173.544 876.37 173.378 875.7 173.044C873.7 171.844 872.4 169.244 872.9 167.144C873.1 166.144 873.7 165.444 874.6 165.044C875.5 164.644 876.6 164.744 877.7 165.344C879.7 166.544 881 169.144 880.5 171.244C880.3 172.244 879.7 172.944 878.8 173.344C878.47 173.478 878.1 173.544 877.7 173.544ZM875.7 165.744C875.43 165.744 875.17 165.778 874.9 165.844C874.4 166.144 873.9 166.644 873.8 167.344C873.4 169.044 874.4 171.244 876.1 172.244C876.9 172.744 877.8 172.844 878.5 172.544C879 172.244 879.4 171.744 879.6 171.044C880 169.344 878.9 167.144 877.3 166.144C876.77 165.878 876.23 165.744 875.7 165.744Z" fill="#42E8E0"/>
<path fill-rule="evenodd" clip-rule="evenodd" d="M888.5 179.844C887.83 179.844 887.17 179.644 886.5 179.244C884.5 178.144 883.2 175.444 883.7 173.444C884 172.444 884.5 171.644 885.4 171.244C886.3 170.844 887.5 171.044 888.5 171.644C890.6 172.744 891.8 175.444 891.3 177.444C891.1 178.444 890.5 179.244 889.7 179.644C889.3 179.778 888.9 179.844 888.5 179.844ZM886.6 171.944C886.27 171.944 886 172.011 885.8 172.144C885.2 172.344 884.8 172.944 884.6 173.644C884.2 175.344 885.3 177.544 887 178.444C887.8 178.944 888.6 179.044 889.3 178.744C889.9 178.544 890.3 177.944 890.4 177.244C890.8 175.544 889.8 173.344 888.1 172.444C887.57 172.111 887.07 171.944 886.6 171.944Z" fill="#42E8E0"/>
<path d="M901.7 183.644C901.3 185.544 899.4 186.244 897.6 185.144C895.7 184.044 894.6 181.644 895 179.744C895.4 177.844 897.3 177.244 899.1 178.244C901 179.344 902.1 181.744 901.7 183.644Z" fill="#42E8E0"/>
<path d="M694.1 64.144L688.3 60.844L688.7 58.144L694.5 61.444L694.1 64.144Z" fill="#42E8E0"/>
<path d="M702.5 69.0439L696.7 65.6438L697.1 62.9438L702.9 66.3438L702.5 69.0439Z" fill="#42E8E0"/>
<path d="M685.7 59.3438L673 52.0438L673.5 49.3438L686.2 56.6438L685.7 59.3438Z" fill="#42E8E0"/>
<path d="M687.3 109.844L677.6 104.244L678 102.044L687.7 107.644L687.3 109.844Z" fill="#42E8E0"/>
<path d="M695.6 114.644L690.8 111.844L691.1 109.644L696 112.444L695.6 114.644Z" fill="#42E8E0"/>
<path d="M689.3 116.744L685.2 114.344L685.6 112.144L689.7 114.544L689.3 116.744Z" fill="#42E8E0"/>
<path d="M696.2 120.744L691.4 117.944L691.8 115.744L696.6 118.544L696.2 120.744Z" fill="#42E8E0"/>
<path d="M703.4 130.644L684.3 119.644L684.7 117.444L703.7 128.444L703.4 130.644Z" fill="#42E8E0"/>
<path d="M686.8 174.644L667.8 163.644L668.2 161.344L687.2 172.344L686.8 174.644Z" fill="#42E8E0"/>
<path d="M694.2 178.844L689.3 176.044L689.7 173.844L694.5 176.644L694.2 178.844Z" fill="#42E8E0"/>
<path d="M687.6 127.244L683.4 124.944L683.8 122.644L687.9 125.044L687.6 127.244Z" fill="#42E8E0"/>
<path d="M694.5 131.244L689.6 128.444L690 126.244L694.9 129.044L694.5 131.244Z" fill="#42E8E0"/>
<path d="M693 136.144L682.5 130.144L682.9 127.944L693.4 133.944L693 136.144Z" fill="#42E8E0"/>
<path d="M700 140.244L695.2 137.444L695.6 135.244L700.4 138.044L700 140.244Z" fill="#42E8E0"/>
<path d="M707.1 144.344L702.2 141.544L702.6 139.244L707.4 142.044L707.1 144.344Z" fill="#42E8E0"/>
<path d="M718.4 150.844L709.3 145.544L709.6 143.344L718.8 148.644L718.4 150.844Z" fill="#42E8E0"/>
<path d="M711.2 158.244L706.3 155.444L706.7 153.144L711.6 155.944L711.2 158.244Z" fill="#42E8E0"/>
<path d="M722.6 164.744L713.4 159.444L713.8 157.244L722.9 162.544L722.6 164.744Z" fill="#42E8E0"/>
<path d="M685.6 143.444L680.8 140.644L681.2 138.444L686 141.244L685.6 143.444Z" fill="#42E8E0"/>
<path d="M692.7 147.544L687.8 144.744L688.2 142.444L693.1 145.244L692.7 147.544Z" fill="#42E8E0"/>
<path d="M704 154.044L694.9 148.744L695.3 146.544L704.4 151.844L704 154.044Z" fill="#42E8E0"/>
<path d="M718.9 156.944L714.1 154.144L714.5 151.844L719.3 154.644L718.9 156.944Z" fill="#42E8E0"/>
<path d="M726 160.944L721.1 158.244L721.5 155.944L726.4 158.744L726 160.944Z" fill="#42E8E0"/>
<path d="M737.4 167.544L728.2 162.244L728.6 160.044L737.7 165.344L737.4 167.544Z" fill="#42E8E0"/>
<path d="M701.8 183.244L696.9 180.444L697.3 178.144L702.1 180.944L701.8 183.244Z" fill="#42E8E0"/>
<path d="M713.1 189.744L704 184.544L704.3 182.244L713.5 187.544L713.1 189.744Z" fill="#42E8E0"/>
<path d="M683.9 153.944L679 151.144L679.4 148.944L684.2 151.744L683.9 153.944Z" fill="#42E8E0"/>
<path d="M695.2 160.544L686.1 155.244L686.4 152.944L695.6 158.244L695.2 160.544Z" fill="#42E8E0"/>
<path d="M707 192.044L702.2 189.244L702.6 187.044L707.4 189.844L707 192.044Z" fill="#42E8E0"/>
<path d="M718.4 198.644L709.2 193.344L709.6 191.044L718.8 196.344L718.4 198.644Z" fill="#42E8E0"/>
<path d="M717.8 139.044L713 136.244L713.4 133.944L718.2 136.744L717.8 139.044Z" fill="#42E8E0"/>
<path d="M710.5 134.744L705.7 131.944L706 129.744L710.9 132.544L710.5 134.744Z" fill="#42E8E0"/>
<path d="M729.2 145.544L720 140.244L720.4 138.044L729.6 143.344L729.2 145.544Z" fill="#42E8E0"/>
<path d="M686 137.944L681.7 135.444L682 133.144L686.4 135.644L686 137.944Z" fill="#42E8E0"/>
<path d="M699 145.444L688.4 139.244L688.8 137.044L699.4 143.144L699 145.444Z" fill="#42E8E0"/>
<path d="M712 152.944L701.3 146.744L701.7 144.544L712.3 150.644L712 152.944Z" fill="#42E8E0"/>
<path d="M735.9 149.444L731.6 146.944L732 144.644L736.3 147.244L735.9 149.444Z" fill="#42E8E0"/>
<path d="M748.9 156.944L738.3 150.844L738.7 148.544L749.3 154.744L748.9 156.944Z" fill="#42E8E0"/>
<path d="M761.9 164.444L751.3 158.244L751.6 156.044L762.3 162.144L761.9 164.444Z" fill="#42E8E0"/>
<path d="M690.6 152.144L680 145.944L680.4 143.744L691 149.844L690.6 152.144Z" fill="#42E8E0"/>
<path d="M696.2 155.344L693 153.444L693.3 151.244L696.6 153.144L696.2 155.344Z" fill="#42E8E0"/>
<path d="M701.8 158.544L698.6 156.644L699 154.444L702.2 156.344L701.8 158.544Z" fill="#42E8E0"/>
<path d="M712.2 164.544L704.2 159.944L704.6 157.644L712.6 162.344L712.2 164.544Z" fill="#42E8E0"/>
<path d="M723.9 154.044L720.6 152.144L721 149.844L724.2 151.744L723.9 154.044Z" fill="#42E8E0"/>
<path d="M734.2 160.044L726.2 155.344L726.6 153.144L734.6 157.744L734.2 160.044Z" fill="#42E8E0"/>
<path d="M736.4 161.244L728.4 156.644L728.8 154.344L736.8 159.044L736.4 161.244Z" fill="#42E8E0"/>
<path d="M693.7 190.044L683.2 184.044L683.6 181.844L694 187.844L693.7 190.044Z" fill="#42E8E0"/>
<path d="M700.7 194.144L695.8 191.344L696.2 189.044L701.1 191.844L700.7 194.144Z" fill="#42E8E0"/>
<path d="M707.7 198.244L702.9 195.444L703.3 193.144L708.1 195.944L707.7 198.244Z" fill="#42E8E0"/>
<path d="M719.1 204.744L709.9 199.444L710.3 197.244L719.5 202.544L719.1 204.744Z" fill="#42E8E0"/>
<path d="M726.4 208.944L721.5 206.144L721.9 203.944L726.7 206.744L726.4 208.944Z" fill="#42E8E0"/>
<path d="M737.7 215.544L728.6 210.244L728.9 207.944L738.1 213.244L737.7 215.544Z" fill="#42E8E0"/>
<path d="M702.9 206.944L698 204.144L698.4 201.844L703.2 204.644L702.9 206.944Z" fill="#42E8E0"/>
<path d="M714.2 213.444L705.1 208.144L705.4 205.944L714.6 211.244L714.2 213.444Z" fill="#42E8E0"/>
<path d="M677.5 192.344L672.7 189.544L673.1 187.244L677.9 190.044L677.5 192.344Z" fill="#42E8E0"/>
<path d="M684.6 196.344L679.7 193.544L680.1 191.344L685 194.144L684.6 196.344Z" fill="#42E8E0"/>
<path d="M696 202.944L686.8 197.644L687.2 195.444L696.3 200.644L696 202.944Z" fill="#42E8E0"/>
<path d="M686.7 191.844L682.3 189.244L682.7 187.044L687.1 189.544L686.7 191.844Z" fill="#42E8E0"/>
<path d="M699.7 199.344L689 193.144L689.4 190.944L700 197.044L699.7 199.344Z" fill="#42E8E0"/>
<path d="M712.6 206.744L702 200.644L702.4 198.444L713 204.544L712.6 206.744Z" fill="#42E8E0"/>
<path d="M674 196.044L663.3 189.844L663.7 187.644L674.3 193.744L674 196.044Z" fill="#42E8E0"/>
<path d="M679.6 199.244L676.3 197.344L676.7 195.144L679.9 196.944L679.6 199.244Z" fill="#42E8E0"/>
<path d="M685.2 202.444L681.9 200.544L682.3 198.344L685.6 200.244L685.2 202.444Z" fill="#42E8E0"/>
<path d="M695.6 208.444L687.5 203.844L687.9 201.544L695.9 206.244L695.6 208.444Z" fill="#42E8E0"/>
<path d="M697.7 209.744L689.7 205.044L690.1 202.844L698.1 207.444L697.7 209.744Z" fill="#42E8E0"/>
<path d="M678.8 175.744L675.5 173.844L675.9 171.544L679.1 173.444L678.8 175.744Z" fill="#42E8E0"/>
<path d="M689.1 181.744L681.1 177.044L681.5 174.844L689.5 179.444L689.1 181.744Z" fill="#42E8E0"/>
<path d="M699.7 187.844L691.7 183.144L692.1 180.944L700.1 185.544L699.7 187.844Z" fill="#42E8E0"/>
<path d="M740.6 222.944L735.8 220.144L736.1 217.944L741 220.744L740.6 222.944Z" fill="#42E8E0"/>
<path d="M752 229.544L742.8 224.244L743.2 221.944L752.4 227.244L752 229.544Z" fill="#42E8E0"/>
<path d="M722.7 212.644L714.7 207.944L715.1 205.744L723.1 210.344L722.7 212.644Z" fill="#42E8E0"/>
<path d="M733.3 218.744L725.3 214.144L725.7 211.844L733.7 216.544L733.3 218.744Z" fill="#42E8E0"/>
<path d="M673.1 153.444L669.8 151.644L670.2 149.344L673.5 151.244L673.1 153.444Z" fill="#42E8E0"/>
<path d="M683.5 159.444L675.4 154.844L675.8 152.644L683.8 157.244L683.5 159.444Z" fill="#42E8E0"/>
<path d="M694.1 165.644L686 160.944L686.4 158.744L694.4 163.344L694.1 165.644Z" fill="#42E8E0"/>
<path fill-rule="evenodd" clip-rule="evenodd" d="M854.3 247.244C853.567 247.244 852.833 247.044 852.1 246.644L787.1 209.144C784.5 207.644 782.8 203.744 783.3 200.544L787.5 175.744C787.8 174.044 788.6 172.744 789.9 172.244C791 171.644 792.3 171.744 793.6 172.544L858.5 209.944C861.2 211.544 862.9 215.344 862.3 218.644L858.2 243.344C857.9 245.044 857 246.344 855.8 246.944C855.333 247.144 854.833 247.244 854.3 247.244ZM791.4 172.744C791 172.744 790.6 172.844 790.2 173.044C789.3 173.444 788.6 174.544 788.4 175.944L784.2 200.644C783.7 203.544 785.3 207.044 787.6 208.344L852.5 245.844C853.5 246.444 854.6 246.544 855.4 246.144C856.4 245.644 857.1 244.644 857.3 243.244L861.4 218.444C861.9 215.544 860.4 212.144 858.1 210.744L793.2 173.344C792.533 172.944 791.933 172.744 791.4 172.744Z" fill="#42E8E0"/>
<path fill-rule="evenodd" clip-rule="evenodd" d="M847.2 289.844C846.4 289.844 845.633 289.611 844.9 289.144L780 251.744C777.4 250.144 775.6 246.344 776.2 243.044L780.3 218.344C780.6 216.644 781.5 215.344 782.7 214.744C783.9 214.244 785.2 214.344 786.5 215.044L851.4 252.544C854 254.044 855.7 257.944 855.2 261.144L851 285.944C850.8 287.644 849.9 288.944 848.7 289.544C848.233 289.744 847.733 289.844 847.2 289.844ZM845.4 288.444C846.4 288.944 847.4 289.044 848.3 288.644C849.2 288.244 849.9 287.144 850.2 285.744L854.3 261.044C854.8 258.144 853.3 254.744 850.9 253.344L786 215.844C785 215.244 784 215.144 783.1 215.544C782.1 216.044 781.5 217.044 781.2 218.444L777.1 243.244C776.6 246.144 778.1 249.544 780.5 250.944L845.4 288.444Z" fill="#42E8E0"/>
<path opacity="0.5" d="M793 206.444C794.1 207.144 795.1 206.944 795.5 205.844L803.1 185.144C804 182.844 807.5 184.944 808.2 188.344L812.9 209.144C813.2 210.644 814.3 212.144 815.5 212.844L816.6 213.444C817.7 214.144 818.7 213.944 819.1 213.044L820.6 209.744C821.6 207.744 824.8 209.644 825.6 212.744C826 214.244 827 215.544 828.2 216.244L829.1 216.744C830.3 217.444 831.4 217.144 831.7 216.044L833.1 211.744C833.9 209.344 837.5 211.344 838.3 214.744L842.9 233.944C843.3 235.544 844.4 236.944 845.5 237.644L793 206.444Z" fill="url(#paint6_linear_215_7178)"/>
<path d="M837.3 280.044C836 279.344 834.9 277.744 834.5 276.044L829.8 256.844C829.3 254.744 827.7 253.144 826.5 253.144C826.033 253.144 825.733 253.411 825.6 253.944L824.2 258.244C824 258.844 823.6 259.244 823 259.444C822.4 259.744 821.7 259.644 820.9 259.144L819.9 258.644C818.7 257.944 817.6 256.444 817.2 254.844C816.7 252.944 815.1 251.444 814 251.344C813.533 251.344 813.2 251.544 813 251.944L811.5 255.244C811.233 255.711 810.867 256.044 810.4 256.244C809.8 256.444 809.1 256.244 808.4 255.844L807.3 255.244C806 254.444 804.8 252.844 804.5 251.244L799.8 230.344C799.3 228.344 797.7 226.744 796.5 226.644C796.033 226.578 795.7 226.811 795.5 227.344L788 248.044C787.733 248.644 787.333 249.011 786.8 249.144C786.2 249.444 785.5 249.344 784.8 248.844L785.2 248.044C785.7 248.344 786.2 248.444 786.5 248.344C786.767 248.211 786.967 248.011 787.1 247.744L794.7 227.044C795 226.144 795.7 225.644 796.6 225.744C798.1 225.844 800.1 227.644 800.7 230.144L805.4 251.044C805.7 252.444 806.6 253.844 807.7 254.444L808.8 255.044C809.3 255.344 809.8 255.444 810.1 255.344C810.367 255.278 810.567 255.111 810.7 254.844L812.2 251.544C812.6 250.844 813.3 250.344 814.1 250.444C815.7 250.644 817.5 252.444 818.1 254.644C818.5 255.944 819.4 257.244 820.4 257.844L821.4 258.344C821.9 258.644 822.4 258.744 822.7 258.644C822.967 258.511 823.167 258.278 823.3 257.944L824.7 253.644C825 252.744 825.6 252.244 826.5 252.244C828.1 252.344 830.1 254.044 830.7 256.644L835.4 275.844C835.7 277.244 836.7 278.644 837.8 279.244L837.3 280.044Z" fill="#42E8E0"/>
<path fill-rule="evenodd" clip-rule="evenodd" d="M811.3 151.644C810.3 151.644 809.4 151.444 808.4 150.844L757.7 121.544C754.6 119.744 752.8 115.444 753.8 111.844C754.3 110.044 755.4 108.744 756.9 108.144C758.3 107.544 760 107.644 761.5 108.544L812.3 137.844C815.4 139.644 817.2 144.044 816.2 147.644C815.7 149.444 814.6 150.744 813.1 151.344C812.5 151.544 811.9 151.644 811.3 151.644ZM758.7 108.644C758.167 108.644 757.667 108.744 757.2 108.944C756 109.444 755.1 110.544 754.7 112.144C753.8 115.244 755.4 119.144 758.1 120.844L808.9 150.144C810.2 150.844 811.6 150.944 812.7 150.544C814 149.944 814.9 148.844 815.3 147.344C816.2 144.144 814.6 140.244 811.8 138.644L761.1 109.344C760.3 108.878 759.5 108.644 758.7 108.644Z" fill="#42E8E0"/>
<defs>
<linearGradient id="paint0_linear_215_7178" x1="931" y1="370.644" x2="618.4" y2="370.644" gradientUnits="userSpaceOnUse">
<stop stop-color="#C0BFF6"/>
<stop offset="1" stop-color="#E9E9FD"/>
</linearGradient>
<linearGradient id="paint1_linear_215_7178" x1="931" y1="370.644" x2="877.3" y2="370.644" gradientUnits="userSpaceOnUse">
<stop stop-color="#5761D7"/>
<stop offset="1" stop-color="#BCBEFF"/>
</linearGradient>
<linearGradient id="paint2_linear_215_7178" x1="889.1" y1="474.744" x2="447.6" y2="474.744" gradientUnits="userSpaceOnUse">
<stop stop-color="#5761D7"/>
<stop offset="1" stop-color="#BCBEFF"/>
</linearGradient>
<linearGradient id="paint3_linear_215_7178" x1="1085.3" y1="468.444" x2="434.7" y2="468.444" gradientUnits="userSpaceOnUse">
<stop stop-color="#C0BFF6"/>
<stop offset="1" stop-color="#E9E9FD"/>
</linearGradient>
<linearGradient id="paint4_linear_215_7178" x1="1058.9" y1="377.644" x2="617.4" y2="377.644" gradientUnits="userSpaceOnUse">
<stop stop-color="#5761D7"/>
<stop offset="1" stop-color="#BCBEFF"/>
</linearGradient>
<linearGradient id="paint5_linear_215_7178" x1="910.6" y1="371.244" x2="468.8" y2="371.244" gradientUnits="userSpaceOnUse">
<stop stop-color="#C0BFF6"/>
<stop offset="1" stop-color="#E9E9FD"/>
</linearGradient>
<linearGradient id="paint6_linear_215_7178" x1="803.3" y1="165.044" x2="910.9" y2="211.044" gradientUnits="userSpaceOnUse">
<stop stop-color="#42E8E0"/>
<stop offset="1" stop-color="#0F054C"/>
</linearGradient>
</defs>
</svg>
